<mxfile host="app.diagrams.net" modified="2024-03-06T16:30:41.609Z" agent="Mozilla/5.0 (Windows NT 10.0; Win64; x64) AppleWebKit/537.36 (KHTML, like Gecko) Chrome/122.0.0.0 Safari/537.36" etag="Ydd-IelxqpEyrvZtH1QU" version="24.0.1" type="github" pages="2">
  <diagram name="PÃ¡gina-1" id="drJX8wcqLLmCFykuWYqo">
    <mxGraphModel dx="1134" dy="2143" grid="1" gridSize="10" guides="1" tooltips="1" connect="1" arrows="1" fold="1" page="1" pageScale="1" pageWidth="827" pageHeight="1169" math="0" shadow="0">
      <root>
        <mxCell id="0" />
        <mxCell id="1" parent="0" />
        <mxCell id="AtJOkKgc5_H_N_osKVQ6-1" value="MOVIOLA CTC" style="rounded=1;whiteSpace=wrap;html=1;verticalAlign=top;" vertex="1" parent="1">
          <mxGeometry x="29" y="65" width="770" height="340" as="geometry" />
        </mxCell>
        <mxCell id="AtJOkKgc5_H_N_osKVQ6-18" style="edgeStyle=orthogonalEdgeStyle;rounded=0;orthogonalLoop=1;jettySize=auto;html=1;" edge="1" parent="1" source="AtJOkKgc5_H_N_osKVQ6-3" target="AtJOkKgc5_H_N_osKVQ6-6">
          <mxGeometry relative="1" as="geometry">
            <Array as="points">
              <mxPoint x="1320" y="730" />
            </Array>
          </mxGeometry>
        </mxCell>
        <mxCell id="AtJOkKgc5_H_N_osKVQ6-3" value="GE" style="rounded=1;whiteSpace=wrap;html=1;verticalAlign=top;" vertex="1" parent="1">
          <mxGeometry x="960" y="-50" width="620" height="480" as="geometry" />
        </mxCell>
        <mxCell id="AtJOkKgc5_H_N_osKVQ6-5" value="&lt;span style=&quot;color: rgb(0, 0, 255);&quot;&gt;usrrectopctchsrocc20200925&lt;/span&gt;" style="shape=cylinder3;whiteSpace=wrap;html=1;boundedLbl=1;backgroundOutline=1;size=15;" vertex="1" parent="1">
          <mxGeometry x="255" y="690" width="280" height="80" as="geometry" />
        </mxCell>
        <mxCell id="AtJOkKgc5_H_N_osKVQ6-6" value="&lt;span style=&quot;background-color:#191d1f;padding:0px 0px 0px 2px;&quot;&gt;&lt;span style=&quot;color: rgb(199, 205, 209); font-family: &amp;quot;Courier New&amp;quot;; font-size: 10pt; white-space: pre;&quot;&gt;&lt;span style=&quot;color:#d8d8d8;&quot;&gt;&lt;/span&gt;&lt;span style=&quot;color:#ffc600;&quot;&gt;USRRECHSROCC&lt;/span&gt;&lt;/span&gt;&lt;/span&gt;" style="shape=cylinder3;whiteSpace=wrap;html=1;boundedLbl=1;backgroundOutline=1;size=15;" vertex="1" parent="1">
          <mxGeometry x="1017" y="690" width="210" height="80" as="geometry" />
        </mxCell>
        <mxCell id="AtJOkKgc5_H_N_osKVQ6-7" value="&lt;span style=&quot;background-color:#191d1f;padding:0px 0px 0px 2px;&quot;&gt;&lt;span style=&quot;color: rgb(199, 205, 209); font-family: &amp;quot;Courier New&amp;quot;; font-size: 10pt; white-space: pre;&quot;&gt;&lt;span style=&quot;color:#d8d8d8;&quot;&gt;&lt;/span&gt;&lt;span style=&quot;color:#ffc600;&quot;&gt;USRRECCONFHSROCC&lt;/span&gt;&lt;/span&gt;&lt;/span&gt;" style="shape=cylinder3;whiteSpace=wrap;html=1;boundedLbl=1;backgroundOutline=1;size=15;" vertex="1" parent="1">
          <mxGeometry x="730" y="690" width="176" height="80" as="geometry" />
        </mxCell>
        <mxCell id="AtJOkKgc5_H_N_osKVQ6-8" value="&lt;div style=&quot;background-color:#191d1f;padding:0px 0px 0px 2px;&quot;&gt;&lt;div style=&quot;color: rgb(199, 205, 209); font-family: &amp;quot;Courier New&amp;quot;; font-size: 10pt; white-space: pre;&quot;&gt;&lt;p style=&quot;margin:0;&quot;&gt;&lt;span style=&quot;color:#c7dd0c;&quot;&gt;# &lt;/span&gt;&lt;span style=&quot;color:#c7dd0c;&quot;&gt;GE &lt;/span&gt;&lt;span style=&quot;color: rgb(199, 221, 12); text-decoration-line: underline; text-decoration-color: rgb(253, 170, 211); text-decoration-style: wavy;&quot;&gt;publica&lt;/span&gt;&lt;span style=&quot;color:#c7dd0c;&quot;&gt; el &lt;/span&gt;&lt;span style=&quot;color: rgb(199, 221, 12); text-decoration-line: underline; text-decoration-color: rgb(253, 170, 211); text-decoration-style: wavy;&quot;&gt;estado&lt;/span&gt;&lt;span style=&quot;color:#c7dd0c;&quot;&gt; &lt;/span&gt;&lt;span style=&quot;color: rgb(199, 221, 12); text-decoration-line: underline; text-decoration-color: rgb(253, 170, 211); text-decoration-style: wavy;&quot;&gt;del&lt;/span&gt;&lt;span style=&quot;color:#c7dd0c;&quot;&gt; &lt;/span&gt;&lt;span style=&quot;color: rgb(199, 221, 12); text-decoration-line: underline; text-decoration-color: rgb(253, 170, 211); text-decoration-style: wavy;&quot;&gt;proceso&lt;/span&gt;&lt;span style=&quot;color:#c7dd0c;&quot;&gt; &lt;/span&gt;&lt;span style=&quot;color: rgb(199, 221, 12); text-decoration-line: underline; text-decoration-color: rgb(253, 170, 211); text-decoration-style: wavy;&quot;&gt;de&lt;/span&gt;&lt;span style=&quot;color:#c7dd0c;&quot;&gt; &lt;/span&gt;&lt;span style=&quot;color: rgb(199, 221, 12); text-decoration-line: underline; text-decoration-color: rgb(253, 170, 211); text-decoration-style: wavy;&quot;&gt;reconstruccio&lt;/span&gt;&lt;span style=&quot;color:#c7dd0c;&quot;&gt;n&lt;/span&gt;&lt;/p&gt;&lt;p style=&quot;margin:0;&quot;&gt;&lt;span style=&quot;color: rgb(111, 197, 238); text-decoration-line: underline; text-decoration-style: solid; text-decoration-color: rgb(0, 102, 204);&quot;&gt;ge/notifySynchr&lt;/span&gt;&lt;span style=&quot;color:#d8d8d8;&quot;&gt;=&lt;/span&gt;&lt;span style=&quot;color:#ffc600;&quot;&gt;davinci2.rec-ge.synchr.notification&lt;/span&gt;&lt;/p&gt;&lt;/div&gt;&lt;/div&gt;" style="rounded=1;whiteSpace=wrap;html=1;align=left;" vertex="1" parent="1">
          <mxGeometry x="1030" y="60" width="420" height="30" as="geometry" />
        </mxCell>
        <mxCell id="AtJOkKgc5_H_N_osKVQ6-10" value="&lt;div style=&quot;background-color:#191d1f;padding:0px 0px 0px 2px;&quot;&gt;&lt;div style=&quot;color: rgb(199, 205, 209); font-family: &amp;quot;Courier New&amp;quot;; font-size: 10pt; white-space: pre;&quot;&gt;&lt;p style=&quot;margin:0;&quot;&gt;&lt;span style=&quot;font-size: 10pt; color: rgb(199, 221, 12);&quot;&gt;# &lt;/span&gt;&lt;span style=&quot;font-size: 10pt; color: rgb(199, 221, 12);&quot;&gt;GE &lt;/span&gt;&lt;span style=&quot;font-size: 10pt; color: rgb(199, 221, 12); text-decoration-line: underline; text-decoration-color: rgb(253, 170, 211); text-decoration-style: wavy;&quot;&gt;recibe&lt;/span&gt;&lt;span style=&quot;font-size: 10pt; color: rgb(199, 221, 12);&quot;&gt; &lt;/span&gt;&lt;span style=&quot;font-size: 10pt; color: rgb(199, 221, 12); text-decoration-line: underline; text-decoration-color: rgb(253, 170, 211); text-decoration-style: wavy;&quot;&gt;las&lt;/span&gt;&lt;span style=&quot;font-size: 10pt; color: rgb(199, 221, 12);&quot;&gt; &lt;/span&gt;&lt;span style=&quot;font-size: 10pt; color: rgb(199, 221, 12); text-decoration-line: underline; text-decoration-color: rgb(253, 170, 211); text-decoration-style: wavy;&quot;&gt;solicitudes&lt;/span&gt;&lt;span style=&quot;font-size: 10pt; color: rgb(199, 221, 12);&quot;&gt; &lt;/span&gt;&lt;span style=&quot;font-size: 10pt; color: rgb(199, 221, 12); text-decoration-line: underline; text-decoration-color: rgb(253, 170, 211); text-decoration-style: wavy;&quot;&gt;de&lt;/span&gt;&lt;span style=&quot;font-size: 10pt; color: rgb(199, 221, 12);&quot;&gt; &lt;/span&gt;&lt;span style=&quot;font-size: 10pt; color: rgb(199, 221, 12); text-decoration-line: underline; text-decoration-color: rgb(253, 170, 211); text-decoration-style: wavy;&quot;&gt;consulta&lt;/span&gt;&lt;br&gt;&lt;/p&gt;&lt;p style=&quot;margin:0;&quot;&gt;&lt;span style=&quot;color:#d8d8d8;&quot;&gt;ge/datarequest=&lt;/span&gt;&lt;span style=&quot;color:#ffc600;&quot;&gt;davinci2.rec-ge.data.request&lt;/span&gt;&lt;/p&gt;&lt;/div&gt;&lt;/div&gt;" style="rounded=1;whiteSpace=wrap;html=1;align=left;" vertex="1" parent="1">
          <mxGeometry x="1030" y="120" width="346" height="30" as="geometry" />
        </mxCell>
        <mxCell id="AtJOkKgc5_H_N_osKVQ6-11" value="&lt;div style=&quot;background-color:#191d1f;padding:0px 0px 0px 2px;&quot;&gt;&lt;div style=&quot;color: rgb(199, 205, 209); font-family: &amp;quot;Courier New&amp;quot;; font-size: 10pt; white-space: pre;&quot;&gt;&lt;p style=&quot;margin:0;&quot;&gt;&lt;span style=&quot;font-size: 10pt; color: rgb(199, 221, 12);&quot;&gt;# &lt;/span&gt;&lt;span style=&quot;font-size: 10pt; color: rgb(199, 221, 12);&quot;&gt;GE &lt;/span&gt;&lt;span style=&quot;font-size: 10pt; color: rgb(199, 221, 12); text-decoration-line: underline; text-decoration-color: rgb(253, 170, 211); text-decoration-style: wavy;&quot;&gt;recibe&lt;/span&gt;&lt;span style=&quot;font-size: 10pt; color: rgb(199, 221, 12);&quot;&gt; &lt;/span&gt;&lt;span style=&quot;font-size: 10pt; color: rgb(199, 221, 12); text-decoration-line: underline; text-decoration-color: rgb(253, 170, 211); text-decoration-style: wavy;&quot;&gt;las&lt;/span&gt;&lt;span style=&quot;font-size: 10pt; color: rgb(199, 221, 12);&quot;&gt; &lt;/span&gt;&lt;span style=&quot;font-size: 10pt; color: rgb(199, 221, 12); text-decoration-line: underline; text-decoration-color: rgb(253, 170, 211); text-decoration-style: wavy;&quot;&gt;solicitudes&lt;/span&gt;&lt;span style=&quot;font-size: 10pt; color: rgb(199, 221, 12);&quot;&gt; &lt;/span&gt;&lt;span style=&quot;font-size: 10pt; color: rgb(199, 221, 12); text-decoration-line: underline; text-decoration-color: rgb(253, 170, 211); text-decoration-style: wavy;&quot;&gt;de&lt;/span&gt;&lt;span style=&quot;font-size: 10pt; color: rgb(199, 221, 12);&quot;&gt; &lt;/span&gt;&lt;span style=&quot;font-size: 10pt; color: rgb(199, 221, 12); text-decoration-line: underline; text-decoration-color: rgb(253, 170, 211); text-decoration-style: wavy;&quot;&gt;operacio&lt;/span&gt;&lt;span style=&quot;font-size: 10pt; color: rgb(199, 221, 12);&quot;&gt;n&lt;/span&gt;&lt;br&gt;&lt;/p&gt;&lt;p style=&quot;margin:0;&quot;&gt;&lt;span style=&quot;color:#d8d8d8;&quot;&gt;ge/operationrequest&lt;/span&gt;&lt;span style=&quot;color:#d8d8d8;&quot;&gt;=&lt;/span&gt;&lt;span style=&quot;color:#ffc600;&quot;&gt;davinci2.rec-ge.operation&lt;/span&gt;&lt;/p&gt;&lt;/div&gt;&lt;/div&gt;" style="rounded=1;whiteSpace=wrap;html=1;align=left;" vertex="1" parent="1">
          <mxGeometry x="1030" y="190" width="360" height="30" as="geometry" />
        </mxCell>
        <mxCell id="AtJOkKgc5_H_N_osKVQ6-12" value="&lt;div style=&quot;background-color:#191d1f;padding:0px 0px 0px 2px;&quot;&gt;&lt;div style=&quot;color: rgb(199, 205, 209); font-family: &amp;quot;Courier New&amp;quot;; font-size: 10pt; white-space: pre;&quot;&gt;&lt;div style=&quot;padding: 0px 0px 0px 2px;&quot;&gt;&lt;div style=&quot;font-size: 10pt;&quot;&gt;&lt;p style=&quot;margin:0;&quot;&gt;&lt;span style=&quot;font-size: 10pt; color: rgb(199, 221, 12);&quot;&gt;# Canal &lt;/span&gt;&lt;span style=&quot;font-size: 10pt; color: rgb(199, 221, 12); text-decoration-line: underline; text-decoration-color: rgb(253, 170, 211); text-decoration-style: wavy;&quot;&gt;por&lt;/span&gt;&lt;span style=&quot;font-size: 10pt; color: rgb(199, 221, 12);&quot;&gt; &lt;/span&gt;&lt;span style=&quot;font-size: 10pt; color: rgb(199, 221, 12); text-decoration-line: underline; text-decoration-color: rgb(253, 170, 211); text-decoration-style: wavy;&quot;&gt;donde&lt;/span&gt;&lt;span style=&quot;font-size: 10pt; color: rgb(199, 221, 12);&quot;&gt; GE &lt;/span&gt;&lt;span style=&quot;font-size: 10pt; color: rgb(199, 221, 12); text-decoration-line: underline; text-decoration-color: rgb(253, 170, 211); text-decoration-style: wavy;&quot;&gt;publica&lt;/span&gt;&lt;span style=&quot;font-size: 10pt; color: rgb(199, 221, 12);&quot;&gt; &lt;/span&gt;&lt;span style=&quot;font-size: 10pt; color: rgb(199, 221, 12); text-decoration-line: underline; text-decoration-color: rgb(253, 170, 211); text-decoration-style: wavy;&quot;&gt;los&lt;/span&gt;&lt;span style=&quot;font-size: 10pt; color: rgb(199, 221, 12);&quot;&gt; &lt;/span&gt;&lt;span style=&quot;font-size: 10pt; color: rgb(199, 221, 12); text-decoration-line: underline; text-decoration-color: rgb(253, 170, 211); text-decoration-style: wavy;&quot;&gt;datos&lt;/span&gt;&lt;span style=&quot;font-size: 10pt; color: rgb(199, 221, 12);&quot;&gt; &lt;/span&gt;&lt;span style=&quot;font-size: 10pt; color: rgb(199, 221, 12); text-decoration-line: underline; text-decoration-color: rgb(253, 170, 211); text-decoration-style: wavy;&quot;&gt;de&lt;/span&gt;&lt;span style=&quot;font-size: 10pt; color: rgb(199, 221, 12);&quot;&gt; &lt;/span&gt;&lt;span style=&quot;font-size: 10pt; color: rgb(199, 221, 12); text-decoration-line: underline; text-decoration-color: rgb(253, 170, 211); text-decoration-style: wavy;&quot;&gt;eventos&lt;/span&gt;&lt;br&gt;&lt;/p&gt;&lt;p style=&quot;margin:0;&quot;&gt;&lt;span style=&quot;color:#d8d8d8;&quot;&gt;ge/notifyData=&lt;/span&gt;&lt;span style=&quot;color:#ffc600;&quot;&gt;davinci2.rec-ge.data.notification&lt;/span&gt;&lt;/p&gt;&lt;/div&gt;&lt;/div&gt;&lt;/div&gt;&lt;/div&gt;" style="rounded=1;whiteSpace=wrap;html=1;align=left;" vertex="1" parent="1">
          <mxGeometry x="1030" y="250" width="400" height="30" as="geometry" />
        </mxCell>
        <mxCell id="AtJOkKgc5_H_N_osKVQ6-13" value="&lt;div style=&quot;background-color:#191d1f;padding:0px 0px 0px 2px;&quot;&gt;&lt;div style=&quot;color: rgb(199, 205, 209); font-family: &amp;quot;Courier New&amp;quot;; font-size: 10pt; white-space: pre;&quot;&gt;&lt;div style=&quot;padding: 0px 0px 0px 2px;&quot;&gt;&lt;div style=&quot;font-size: 10pt;&quot;&gt;&lt;p style=&quot;margin:0;&quot;&gt;&lt;span style=&quot;font-size: 10pt; color: rgb(199, 221, 12);&quot;&gt;# Canal &lt;/span&gt;&lt;span style=&quot;font-size: 10pt; color: rgb(199, 221, 12); text-decoration-line: underline; text-decoration-color: rgb(253, 170, 211); text-decoration-style: wavy;&quot;&gt;por&lt;/span&gt;&lt;span style=&quot;font-size: 10pt; color: rgb(199, 221, 12);&quot;&gt; &lt;/span&gt;&lt;span style=&quot;font-size: 10pt; color: rgb(199, 221, 12); text-decoration-line: underline; text-decoration-color: rgb(253, 170, 211); text-decoration-style: wavy;&quot;&gt;donde&lt;/span&gt;&lt;span style=&quot;font-size: 10pt; color: rgb(199, 221, 12);&quot;&gt; &lt;/span&gt;&lt;span style=&quot;font-size: 10pt; color: rgb(199, 221, 12); text-decoration-line: underline; text-decoration-color: rgb(253, 170, 211); text-decoration-style: wavy;&quot;&gt;la&lt;/span&gt;&lt;span style=&quot;font-size: 10pt; color: rgb(199, 221, 12);&quot;&gt; &lt;/span&gt;&lt;span style=&quot;font-size: 10pt; color: rgb(199, 221, 12); text-decoration-line: underline; text-decoration-color: rgb(253, 170, 211); text-decoration-style: wavy;&quot;&gt;moviola&lt;/span&gt;&lt;span style=&quot;font-size: 10pt; color: rgb(199, 221, 12);&quot;&gt; &lt;/span&gt;&lt;span style=&quot;font-size: 10pt; color: rgb(199, 221, 12); text-decoration-line: underline; text-decoration-color: rgb(253, 170, 211); text-decoration-style: wavy;&quot;&gt;publica&lt;/span&gt;&lt;span style=&quot;font-size: 10pt; color: rgb(199, 221, 12);&quot;&gt; &lt;/span&gt;&lt;span style=&quot;font-size: 10pt; color: rgb(199, 221, 12); text-decoration-line: underline; text-decoration-color: rgb(253, 170, 211); text-decoration-style: wavy;&quot;&gt;las&lt;/span&gt;&lt;span style=&quot;font-size: 10pt; color: rgb(199, 221, 12);&quot;&gt; &lt;/span&gt;&lt;span style=&quot;font-size: 10pt; color: rgb(199, 221, 12); text-decoration-line: underline; text-decoration-color: rgb(253, 170, 211); text-decoration-style: wavy;&quot;&gt;notificaciones&lt;/span&gt;&lt;span style=&quot;font-size: 10pt; color: rgb(199, 221, 12);&quot;&gt; &lt;/span&gt;&lt;span style=&quot;font-size: 10pt; color: rgb(199, 221, 12); text-decoration-line: underline; text-decoration-color: rgb(253, 170, 211); text-decoration-style: wavy;&quot;&gt;de&lt;/span&gt;&lt;span style=&quot;font-size: 10pt; color: rgb(199, 221, 12);&quot;&gt; &lt;/span&gt;&lt;span style=&quot;font-size: 10pt; color: rgb(199, 221, 12); text-decoration-line: underline; text-decoration-color: rgb(253, 170, 211); text-decoration-style: wavy;&quot;&gt;estado&lt;/span&gt;&lt;span style=&quot;font-size: 10pt; color: rgb(199, 221, 12);&quot;&gt; RecClientState&lt;/span&gt;&lt;br&gt;&lt;/p&gt;&lt;p style=&quot;margin:0;&quot;&gt;&lt;span style=&quot;color:#d8d8d8;&quot;&gt;movctc/notify=&lt;/span&gt;&lt;span style=&quot;color:#ffc600;&quot;&gt;davinci2.rec-movctc.data.notification&lt;/span&gt;&lt;/p&gt;&lt;/div&gt;&lt;/div&gt;&lt;/div&gt;&lt;/div&gt;" style="rounded=1;whiteSpace=wrap;html=1;align=left;" vertex="1" parent="1">
          <mxGeometry x="52" y="230" width="686" as="geometry" />
        </mxCell>
        <mxCell id="AtJOkKgc5_H_N_osKVQ6-14" value="&lt;div style=&quot;padding: 0px 0px 0px 2px;&quot;&gt;&lt;div style=&quot;color: rgb(199, 205, 209); font-family: &amp;quot;Courier New&amp;quot;; font-size: 10pt; white-space: pre;&quot;&gt;&lt;div style=&quot;padding: 0px 0px 0px 2px;&quot;&gt;&lt;div style=&quot;font-size: 10pt;&quot;&gt;&lt;p style=&quot;margin: 0px;&quot;&gt;&lt;span style=&quot;background-color: rgb(102, 102, 255);&quot;&gt;&lt;span style=&quot;color: rgb(199, 221, 12);&quot;&gt;#Canal &lt;/span&gt;&lt;span style=&quot;color: rgb(199, 221, 12); text-decoration-line: underline; text-decoration-color: rgb(253, 170, 211); text-decoration-style: wavy;&quot;&gt;por&lt;/span&gt;&lt;span style=&quot;color: rgb(199, 221, 12);&quot;&gt; &lt;/span&gt;&lt;span style=&quot;color: rgb(199, 221, 12); text-decoration-line: underline; text-decoration-color: rgb(253, 170, 211); text-decoration-style: wavy;&quot;&gt;donde&lt;/span&gt;&lt;span style=&quot;color: rgb(199, 221, 12);&quot;&gt; &lt;/span&gt;&lt;span style=&quot;color: rgb(199, 221, 12); text-decoration-line: underline; text-decoration-color: rgb(253, 170, 211); text-decoration-style: wavy;&quot;&gt;la&lt;/span&gt;&lt;span style=&quot;color: rgb(199, 221, 12);&quot;&gt; &lt;/span&gt;&lt;span style=&quot;color: rgb(199, 221, 12); text-decoration-line: underline; text-decoration-color: rgb(253, 170, 211); text-decoration-style: wavy;&quot;&gt;moviola&lt;/span&gt;&lt;span style=&quot;color: rgb(199, 221, 12);&quot;&gt; &lt;/span&gt;&lt;span style=&quot;color: rgb(199, 221, 12); text-decoration-line: underline; text-decoration-color: rgb(253, 170, 211); text-decoration-style: wavy;&quot;&gt;publica&lt;/span&gt;&lt;span style=&quot;color: rgb(199, 221, 12);&quot;&gt; &lt;/span&gt;&lt;span style=&quot;color: rgb(199, 221, 12); text-decoration-line: underline; text-decoration-color: rgb(253, 170, 211); text-decoration-style: wavy;&quot;&gt;su&lt;/span&gt;&lt;span style=&quot;color: rgb(199, 221, 12);&quot;&gt; &lt;/span&gt;&lt;span style=&quot;color: rgb(199, 221, 12); text-decoration-line: underline; text-decoration-color: rgb(253, 170, 211); text-decoration-style: wavy;&quot;&gt;pulso&lt;/span&gt;&lt;span style=&quot;color: rgb(199, 221, 12);&quot;&gt; &lt;/span&gt;&lt;span style=&quot;color: rgb(199, 221, 12); text-decoration-line: underline; text-decoration-color: rgb(253, 170, 211); text-decoration-style: wavy;&quot;&gt;de&lt;/span&gt;&lt;span style=&quot;color: rgb(199, 221, 12);&quot;&gt; &lt;/span&gt;&lt;span style=&quot;color: rgb(199, 221, 12); text-decoration-line: underline; text-decoration-color: rgb(253, 170, 211); text-decoration-style: wavy;&quot;&gt;vida&lt;/span&gt;&lt;/span&gt;&lt;/p&gt;&lt;p style=&quot;margin: 0px;&quot;&gt;&lt;span style=&quot;background-color: rgb(102, 102, 255);&quot;&gt;&lt;span style=&quot;color: rgb(216, 216, 216);&quot;&gt;movctc/heartbeat=&lt;/span&gt;&lt;span style=&quot;color: rgb(255, 198, 0);&quot;&gt;davinci2.rec-movctc.heartbeat.notification&lt;/span&gt;&lt;/span&gt;&lt;/p&gt;&lt;/div&gt;&lt;/div&gt;&lt;/div&gt;&lt;/div&gt;" style="rounded=1;whiteSpace=wrap;html=1;align=left;strokeColor=none;" vertex="1" parent="1">
          <mxGeometry x="52" y="255" width="489" height="40" as="geometry" />
        </mxCell>
        <mxCell id="AtJOkKgc5_H_N_osKVQ6-15" value="&lt;div style=&quot;padding: 0px 0px 0px 2px;&quot;&gt;&lt;div style=&quot;color: rgb(199, 205, 209); font-family: &amp;quot;Courier New&amp;quot;; font-size: 10pt; white-space: pre;&quot;&gt;&lt;div style=&quot;padding: 0px 0px 0px 2px;&quot;&gt;&lt;div style=&quot;font-size: 10pt;&quot;&gt;&lt;p style=&quot;margin: 0px;&quot;&gt;&lt;span style=&quot;background-color: rgb(102, 102, 255);&quot;&gt;&lt;span style=&quot;font-size: 10pt; color: rgb(199, 221, 12);&quot;&gt;# Canal &lt;/span&gt;&lt;span style=&quot;font-size: 10pt; color: rgb(199, 221, 12); text-decoration-line: underline; text-decoration-color: rgb(253, 170, 211); text-decoration-style: wavy;&quot;&gt;por&lt;/span&gt;&lt;span style=&quot;font-size: 10pt; color: rgb(199, 221, 12);&quot;&gt; &lt;/span&gt;&lt;span style=&quot;font-size: 10pt; color: rgb(199, 221, 12); text-decoration-line: underline; text-decoration-color: rgb(253, 170, 211); text-decoration-style: wavy;&quot;&gt;donde&lt;/span&gt;&lt;span style=&quot;font-size: 10pt; color: rgb(199, 221, 12);&quot;&gt; GE &lt;/span&gt;&lt;span style=&quot;font-size: 10pt; color: rgb(199, 221, 12); text-decoration-line: underline; text-decoration-color: rgb(253, 170, 211); text-decoration-style: wavy;&quot;&gt;publica&lt;/span&gt;&lt;span style=&quot;font-size: 10pt; color: rgb(199, 221, 12);&quot;&gt; &lt;/span&gt;&lt;span style=&quot;font-size: 10pt; color: rgb(199, 221, 12); text-decoration-line: underline; text-decoration-color: rgb(253, 170, 211); text-decoration-style: wavy;&quot;&gt;su&lt;/span&gt;&lt;span style=&quot;font-size: 10pt; color: rgb(199, 221, 12);&quot;&gt; &lt;/span&gt;&lt;span style=&quot;font-size: 10pt; color: rgb(199, 221, 12); text-decoration-line: underline; text-decoration-color: rgb(253, 170, 211); text-decoration-style: wavy;&quot;&gt;pulso&lt;/span&gt;&lt;span style=&quot;font-size: 10pt; color: rgb(199, 221, 12);&quot;&gt; &lt;/span&gt;&lt;span style=&quot;font-size: 10pt; color: rgb(199, 221, 12); text-decoration-line: underline; text-decoration-color: rgb(253, 170, 211); text-decoration-style: wavy;&quot;&gt;de&lt;/span&gt;&lt;span style=&quot;font-size: 10pt; color: rgb(199, 221, 12);&quot;&gt; &lt;/span&gt;&lt;span style=&quot;font-size: 10pt; color: rgb(199, 221, 12); text-decoration-line: underline; text-decoration-color: rgb(253, 170, 211); text-decoration-style: wavy;&quot;&gt;vida&lt;/span&gt;&lt;br&gt;&lt;/span&gt;&lt;/p&gt;&lt;p style=&quot;margin: 0px;&quot;&gt;&lt;span style=&quot;background-color: rgb(102, 102, 255);&quot;&gt;&lt;span style=&quot;color: rgb(216, 216, 216);&quot;&gt;ge/heartbeat=&lt;/span&gt;&lt;span style=&quot;color: rgb(255, 198, 0);&quot;&gt;davinci2.rec-ge.heartbeat.notification&lt;/span&gt;&lt;/span&gt;&lt;/p&gt;&lt;/div&gt;&lt;/div&gt;&lt;/div&gt;&lt;/div&gt;" style="rounded=1;whiteSpace=wrap;html=1;align=left;strokeColor=none;" vertex="1" parent="1">
          <mxGeometry x="1030" y="300" width="420" height="30" as="geometry" />
        </mxCell>
        <mxCell id="AtJOkKgc5_H_N_osKVQ6-19" style="edgeStyle=orthogonalEdgeStyle;rounded=0;orthogonalLoop=1;jettySize=auto;html=1;" edge="1" parent="1" source="AtJOkKgc5_H_N_osKVQ6-3" target="AtJOkKgc5_H_N_osKVQ6-7">
          <mxGeometry relative="1" as="geometry">
            <Array as="points">
              <mxPoint x="1210" y="580" />
              <mxPoint x="850" y="580" />
            </Array>
          </mxGeometry>
        </mxCell>
        <mxCell id="AtJOkKgc5_H_N_osKVQ6-20" style="edgeStyle=orthogonalEdgeStyle;rounded=0;orthogonalLoop=1;jettySize=auto;html=1;" edge="1" parent="1" source="AtJOkKgc5_H_N_osKVQ6-1" target="AtJOkKgc5_H_N_osKVQ6-7">
          <mxGeometry relative="1" as="geometry">
            <mxPoint x="520" y="790" as="targetPoint" />
            <Array as="points">
              <mxPoint x="260" y="580" />
              <mxPoint x="800" y="580" />
            </Array>
          </mxGeometry>
        </mxCell>
        <mxCell id="AtJOkKgc5_H_N_osKVQ6-21" style="edgeStyle=orthogonalEdgeStyle;rounded=0;orthogonalLoop=1;jettySize=auto;html=1;entryX=0;entryY=0.5;entryDx=0;entryDy=0;entryPerimeter=0;" edge="1" parent="1" source="AtJOkKgc5_H_N_osKVQ6-1" target="AtJOkKgc5_H_N_osKVQ6-5">
          <mxGeometry relative="1" as="geometry">
            <Array as="points">
              <mxPoint x="180" y="730" />
            </Array>
          </mxGeometry>
        </mxCell>
        <mxCell id="AtJOkKgc5_H_N_osKVQ6-22" value="&lt;pre&gt;&lt;span style=&quot;padding: 0px 0px 0px 2px;&quot;&gt;&lt;span style=&quot;font-family: &amp;quot;Courier New&amp;quot;; font-size: 10pt; white-space: pre;&quot;&gt;&lt;span style=&quot;text-decoration-line: underline; text-decoration-color: rgb(253, 170, 211); text-decoration-style: wavy;&quot;&gt;jdbc&lt;/span&gt;:&lt;span style=&quot;border: 1pt solid rgb(0, 0, 0);&quot;&gt;oracle&lt;/span&gt;:thin:@orarecocc:49161/&lt;span style=&quot;text-decoration-line: underline; text-decoration-color: rgb(253, 170, 211); text-decoration-style: wavy;&quot;&gt;xe&lt;/span&gt;&lt;/span&gt;&lt;/span&gt;&lt;/pre&gt;" style="rounded=1;whiteSpace=wrap;html=1;" vertex="1" parent="1">
          <mxGeometry x="550" y="900" width="560" height="60" as="geometry" />
        </mxCell>
        <mxCell id="AtJOkKgc5_H_N_osKVQ6-23" value="RECO_TOPOLOGY_CTC&lt;div&gt;&lt;br&gt;&lt;/div&gt;&lt;div&gt;5&lt;span style=&quot;white-space:pre&quot;&gt;&#x9;&lt;/span&gt;jdbc:oracle:thin:@orarecocc:49161/xe&lt;span style=&quot;white-space:pre&quot;&gt;&#x9;&lt;/span&gt;oracle.jdbc.driver.OracleDriver&lt;span style=&quot;white-space:pre&quot;&gt;&#x9;&lt;/span&gt;&lt;font color=&quot;#0000ff&quot;&gt;usrrectopctchsrocc20200925&lt;/font&gt;&lt;span style=&quot;white-space:pre&quot;&gt;&#x9;&lt;/span&gt;usrrectopctchsrocc20200925&lt;span style=&quot;white-space:pre&quot;&gt;&#x9;&lt;/span&gt;20200925010000&lt;span style=&quot;white-space:pre&quot;&gt;&#x9;&#x9;&lt;/span&gt;EXPDP_USRRECCTCHSR_20200925.DMP&lt;span style=&quot;white-space:pre&quot;&gt;&#x9;&lt;/span&gt;HHR_OCC&lt;br&gt;&lt;/div&gt;" style="rounded=1;whiteSpace=wrap;html=1;" vertex="1" parent="1">
          <mxGeometry x="280" y="800" width="1340" height="60" as="geometry" />
        </mxCell>
        <mxCell id="AtJOkKgc5_H_N_osKVQ6-24" style="edgeStyle=orthogonalEdgeStyle;rounded=0;orthogonalLoop=1;jettySize=auto;html=1;entryX=1;entryY=0.5;entryDx=0;entryDy=0;entryPerimeter=0;" edge="1" parent="1" source="AtJOkKgc5_H_N_osKVQ6-7" target="AtJOkKgc5_H_N_osKVQ6-5">
          <mxGeometry relative="1" as="geometry" />
        </mxCell>
      </root>
    </mxGraphModel>
  </diagram>
  <diagram id="T65MDseQnMiwYh86hHWJ" name="PÃ¡gina-2">
    <mxGraphModel dx="1621" dy="682" grid="1" gridSize="10" guides="1" tooltips="1" connect="1" arrows="1" fold="1" page="1" pageScale="1" pageWidth="827" pageHeight="1169" math="0" shadow="0">
      <root>
        <mxCell id="0" />
        <mxCell id="1" parent="0" />
        <mxCell id="hbGdOo2C__Q1L7NtaoYQ-3" style="edgeStyle=orthogonalEdgeStyle;rounded=0;orthogonalLoop=1;jettySize=auto;html=1;curved=0;" edge="1" parent="1" source="hbGdOo2C__Q1L7NtaoYQ-1" target="hbGdOo2C__Q1L7NtaoYQ-2">
          <mxGeometry relative="1" as="geometry" />
        </mxCell>
        <mxCell id="hbGdOo2C__Q1L7NtaoYQ-4" value="&lt;span style=&quot;padding: 0px 0px 0px 2px;&quot;&gt;&lt;span style=&quot;font-family: &amp;quot;Courier New&amp;quot;; font-size: 10pt; white-space-collapse: preserve;&quot;&gt;parseRecordClass(&lt;/span&gt;&lt;/span&gt;&lt;font face=&quot;Courier New&quot;&gt;&lt;span style=&quot;font-size: 13.3333px; white-space-collapse: preserve;&quot;&gt;nu.xom.Element)&lt;/span&gt;&lt;/font&gt;" style="edgeLabel;html=1;align=center;verticalAlign=middle;resizable=0;points=[];" vertex="1" connectable="0" parent="hbGdOo2C__Q1L7NtaoYQ-3">
          <mxGeometry x="-0.2041" y="-2" relative="1" as="geometry">
            <mxPoint x="33" y="-12" as="offset" />
          </mxGeometry>
        </mxCell>
        <mxCell id="hbGdOo2C__Q1L7NtaoYQ-1" value="com.indra.davinci.messaging.movioladata.parser.notification.&lt;div&gt;RecordClassParser&lt;/div&gt;" style="shape=umlLifeline;perimeter=lifelinePerimeter;whiteSpace=wrap;html=1;container=1;dropTarget=0;collapsible=0;recursiveResize=0;outlineConnect=0;portConstraint=eastwest;newEdgeStyle={&quot;curved&quot;:0,&quot;rounded&quot;:0};" vertex="1" parent="1">
          <mxGeometry x="430" y="190" width="150" height="300" as="geometry" />
        </mxCell>
        <mxCell id="hbGdOo2C__Q1L7NtaoYQ-2" value="com.indra.davinci.messaging.movioladata.parser.notification.ctcelement.&lt;div&gt;DimetronicCTCElementRecordClassParser&lt;br&gt;&lt;/div&gt;" style="shape=umlLifeline;perimeter=lifelinePerimeter;whiteSpace=wrap;html=1;container=1;dropTarget=0;collapsible=0;recursiveResize=0;outlineConnect=0;portConstraint=eastwest;newEdgeStyle={&quot;curved&quot;:0,&quot;rounded&quot;:0};" vertex="1" parent="1">
          <mxGeometry x="590" y="110" width="150" height="410" as="geometry" />
        </mxCell>
        <mxCell id="hbGdOo2C__Q1L7NtaoYQ-6" style="edgeStyle=orthogonalEdgeStyle;rounded=0;orthogonalLoop=1;jettySize=auto;html=1;curved=0;" edge="1" parent="1" source="hbGdOo2C__Q1L7NtaoYQ-5" target="hbGdOo2C__Q1L7NtaoYQ-7">
          <mxGeometry relative="1" as="geometry">
            <Array as="points">
              <mxPoint x="180" y="260" />
              <mxPoint x="180" y="280" />
            </Array>
          </mxGeometry>
        </mxCell>
        <mxCell id="hbGdOo2C__Q1L7NtaoYQ-8" value="&lt;span style=&quot;background-color:#191d1f;padding:0px 0px 0px 2px;&quot;&gt;&lt;span style=&quot;color: rgb(199, 205, 209); font-family: &amp;quot;Courier New&amp;quot;; font-size: 10pt; white-space-collapse: preserve;&quot;&gt;&lt;span style=&quot;color:#d8d8d8;&quot;&gt;&lt;/span&gt;&lt;span style=&quot;color:#bed6ff;&quot;&gt;dispatchRecDataNotification&lt;/span&gt;&lt;span style=&quot;color:#d8d8d8;&quot;&gt;(&lt;/span&gt;&lt;span style=&quot;color:#d197d9;&quot;&gt;Map&lt;/span&gt;&lt;span style=&quot;color:#d8d8d8;&quot;&gt;&amp;lt;&lt;/span&gt;&lt;span style=&quot;color:#bfa4a4;&quot;&gt;String&lt;/span&gt;&lt;span style=&quot;color:#d8d8d8;&quot;&gt;, &lt;/span&gt;&lt;span style=&quot;color:#bfa4a4;&quot;&gt;String&lt;/span&gt;&lt;span style=&quot;color:#d8d8d8;&quot;&gt;&amp;gt; &lt;/span&gt;&lt;/span&gt;&lt;/span&gt;&lt;div&gt;&lt;span style=&quot;background-color:#191d1f;padding:0px 0px 0px 2px;&quot;&gt;&lt;span style=&quot;color: rgb(199, 205, 209); font-family: &amp;quot;Courier New&amp;quot;; font-size: 10pt; white-space-collapse: preserve;&quot;&gt;&lt;span style=&quot;color:#79abff;&quot;&gt;envelope&lt;/span&gt;&lt;span style=&quot;color:#d8d8d8;&quot;&gt;, &lt;/span&gt;&lt;/span&gt;&lt;/span&gt;&lt;/div&gt;&lt;div&gt;&lt;span style=&quot;background-color:#191d1f;padding:0px 0px 0px 2px;&quot;&gt;&lt;span style=&quot;color: rgb(199, 205, 209); font-family: &amp;quot;Courier New&amp;quot;; font-size: 10pt; white-space-collapse: preserve;&quot;&gt;&lt;span style=&quot;color:#d25252;&quot;&gt;String&lt;/span&gt;&lt;span style=&quot;color:#d8d8d8;&quot;&gt; &lt;/span&gt;&lt;span style=&quot;color:#79abff;&quot;&gt;xmlContent&lt;/span&gt;&lt;span style=&quot;color:#d8d8d8;&quot;&gt;)&lt;/span&gt;&lt;/span&gt;&lt;/span&gt;&lt;/div&gt;" style="edgeLabel;html=1;align=center;verticalAlign=middle;resizable=0;points=[];" vertex="1" connectable="0" parent="hbGdOo2C__Q1L7NtaoYQ-6">
          <mxGeometry x="0.3" y="2" relative="1" as="geometry">
            <mxPoint x="-57" y="-38" as="offset" />
          </mxGeometry>
        </mxCell>
        <mxCell id="hbGdOo2C__Q1L7NtaoYQ-5" value="com.indra.davinci.gui.movioladata.connector.mom.ge.callback.&lt;div&gt;RecDataCallback&lt;br&gt;&lt;/div&gt;" style="shape=umlLifeline;perimeter=lifelinePerimeter;whiteSpace=wrap;html=1;container=1;dropTarget=0;collapsible=0;recursiveResize=0;outlineConnect=0;portConstraint=eastwest;newEdgeStyle={&quot;curved&quot;:0,&quot;rounded&quot;:0};" vertex="1" parent="1">
          <mxGeometry x="10" y="110" width="150" height="300" as="geometry" />
        </mxCell>
        <mxCell id="hbGdOo2C__Q1L7NtaoYQ-9" style="edgeStyle=orthogonalEdgeStyle;rounded=0;orthogonalLoop=1;jettySize=auto;html=1;curved=0;" edge="1" parent="1" source="hbGdOo2C__Q1L7NtaoYQ-7" target="hbGdOo2C__Q1L7NtaoYQ-1">
          <mxGeometry relative="1" as="geometry">
            <Array as="points">
              <mxPoint x="460" y="310" />
              <mxPoint x="460" y="310" />
            </Array>
          </mxGeometry>
        </mxCell>
        <mxCell id="hbGdOo2C__Q1L7NtaoYQ-10" value="&lt;span style=&quot;background-color:#191d1f;padding:0px 0px 0px 2px;&quot;&gt;&lt;span style=&quot;color: rgb(199, 205, 209); font-family: &amp;quot;Courier New&amp;quot;; font-size: 10pt; white-space-collapse: preserve;&quot;&gt;&lt;span style=&quot;color: rgb(216, 216, 216); background-color: rgb(47, 52, 54); text-decoration-line: underline; text-decoration-color: rgb(244, 200, 45); text-decoration-style: wavy;&quot;&gt;&lt;/span&gt;&lt;span style=&quot;color: rgb(190, 214, 255); background-color: rgb(47, 52, 54); text-decoration-line: underline; text-decoration-color: rgb(244, 200, 45); text-decoration-style: wavy;&quot;&gt;factory&lt;/span&gt;&lt;span style=&quot;color: rgb(216, 216, 216); background-color: rgb(47, 52, 54); text-decoration-line: underline; text-decoration-color: rgb(244, 200, 45); text-decoration-style: wavy;&quot;&gt;.&lt;/span&gt;&lt;span style=&quot;color: rgb(190, 214, 255); background-color: rgb(47, 52, 54); text-decoration-line: underline; text-decoration-color: rgb(244, 200, 45); text-decoration-style: wavy;&quot;&gt;parse&lt;/span&gt;&lt;span style=&quot;color: rgb(216, 216, 216); background-color: rgb(47, 52, 54); text-decoration-line: underline; text-decoration-color: rgb(244, 200, 45); text-decoration-style: wavy;&quot;&gt;(&lt;/span&gt;&lt;span style=&quot;color: rgb(121, 171, 255); background-color: rgb(47, 52, 54); text-decoration-line: underline; text-decoration-color: rgb(244, 200, 45); text-decoration-style: wavy;&quot;&gt;xmlContent&lt;/span&gt;&lt;span style=&quot;color: rgb(216, 216, 216); background-color: rgb(47, 52, 54); text-decoration-line: underline; text-decoration-color: rgb(244, 200, 45); text-decoration-style: wavy;&quot;&gt;)&lt;/span&gt;&lt;/span&gt;&lt;/span&gt;" style="edgeLabel;html=1;align=center;verticalAlign=middle;resizable=0;points=[];" vertex="1" connectable="0" parent="hbGdOo2C__Q1L7NtaoYQ-9">
          <mxGeometry x="-0.2684" y="4" relative="1" as="geometry">
            <mxPoint x="30" y="-16" as="offset" />
          </mxGeometry>
        </mxCell>
        <mxCell id="hbGdOo2C__Q1L7NtaoYQ-7" value="com.indra.davinci.gui.movioladata.connector.mom.ge.&lt;div&gt;EventManagerConnector&lt;br&gt;&lt;/div&gt;" style="shape=umlLifeline;perimeter=lifelinePerimeter;whiteSpace=wrap;html=1;container=1;dropTarget=0;collapsible=0;recursiveResize=0;outlineConnect=0;portConstraint=eastwest;newEdgeStyle={&quot;curved&quot;:0,&quot;rounded&quot;:0};" vertex="1" parent="1">
          <mxGeometry x="240" y="160" width="150" height="300" as="geometry" />
        </mxCell>
      </root>
    </mxGraphModel>
  </diagram>
</mxfile>
